<svg xmlns="http://www.w3.org/2000/svg" width="1140" height="512" viewBox="78 45 1030 400" role="img" aria-label="ReelBot"><path d="M100 202H270C339 202 378 228 378 275C378 315 353 340 311 347L398 432H309L204 301H265C295 301 311 291 311 274C311 256 297 246 270 246H164V418Q164 432 150 432H114Q100 432 100 418Z" fill="#F4C55E"/><path d="M112 250H152V418H112Z M122 265V285H142V265Z M122 302V322H142V302Z M122 339V359H142V339Z M122 376V396H142V376Z " fill="#050811" fill-rule="evenodd"/><g transform="rotate(-22 100 194)"><rect x="100" y="150" width="280" height="44" rx="7" fill="#F4C55E"/><path d="M151 150H195L220 194H176Z M239 150H283L308 194H264Z" fill="#050811"/><circle cx="117" cy="176" r="10" fill="#050811"/></g><g transform="translate(435 346) scale(0.075 -0.075)"><path transform="translate(0 0)" fill="#F4EFE4" d="M735 831Q856 831 908.5 876.0Q961 921 961 1024Q961 1126 908.5 1170.0Q856 1214 735 1214H573V831ZM573 565V0H188V1493H776Q1071 1493 1208.5 1394.0Q1346 1295 1346 1081Q1346 933 1274.5 838.0Q1203 743 1059 698Q1138 680 1200.5 616.5Q1263 553 1327 424L1536 0H1126L944 371Q889 483 832.5 524.0Q776 565 682 565Z"/><path transform="translate(1547 0)" fill="#F4EFE4" d="M1290 563V461H453Q466 335 544.0 272.0Q622 209 762 209Q875 209 993.5 242.5Q1112 276 1237 344V68Q1110 20 983.0 -4.5Q856 -29 729 -29Q425 -29 256.5 125.5Q88 280 88 559Q88 833 253.5 990.0Q419 1147 709 1147Q973 1147 1131.5 988.0Q1290 829 1290 563ZM922 682Q922 784 862.5 846.5Q803 909 707 909Q603 909 538.0 850.5Q473 792 457 682Z"/><path transform="translate(2906 0)" fill="#F4EFE4" d="M1290 563V461H453Q466 335 544.0 272.0Q622 209 762 209Q875 209 993.5 242.5Q1112 276 1237 344V68Q1110 20 983.0 -4.5Q856 -29 729 -29Q425 -29 256.5 125.5Q88 280 88 559Q88 833 253.5 990.0Q419 1147 709 1147Q973 1147 1131.5 988.0Q1290 829 1290 563ZM922 682Q922 784 862.5 846.5Q803 909 707 909Q603 909 538.0 850.5Q473 792 457 682Z"/><path transform="translate(4265 0)" fill="#F4EFE4" d="M172 1556H530V0H172Z"/><path transform="translate(4937 0)" fill="#F4C55E" d="M786 915Q877 915 924.0 955.0Q971 995 971 1073Q971 1150 924.0 1190.5Q877 1231 786 1231H573V915ZM799 262Q915 262 973.5 311.0Q1032 360 1032 459Q1032 556 974.0 604.5Q916 653 799 653H573V262ZM1157 799Q1281 763 1349.0 666.0Q1417 569 1417 428Q1417 212 1271.0 106.0Q1125 0 827 0H188V1493H766Q1077 1493 1216.5 1399.0Q1356 1305 1356 1098Q1356 989 1305.0 912.5Q1254 836 1157 799Z"/><path transform="translate(6468 0)" fill="#F4C55E" d="M705 891Q586 891 523.5 805.5Q461 720 461 559Q461 398 523.5 312.5Q586 227 705 227Q822 227 884.0 312.5Q946 398 946 559Q946 720 884.0 805.5Q822 891 705 891ZM705 1147Q994 1147 1156.5 991.0Q1319 835 1319 559Q1319 283 1156.5 127.0Q994 -29 705 -29Q415 -29 251.5 127.0Q88 283 88 559Q88 835 251.5 991.0Q415 1147 705 1147Z"/><path transform="translate(7845 0)" fill="#F4C55E" d="M563 1438V1120H932V864H563V389Q563 311 594.0 283.5Q625 256 717 256H901V0H594Q382 0 293.5 88.5Q205 177 205 389V864H27V1120H205V1438Z"/></g></svg>